<svg height="512" viewBox="0 0 58 58" width="512" xmlns="http://www.w3.org/2000/svg"><g id="007---Web-Translation" fill="none"><rect id="Rectangle-path" fill="#f0c419" height="56" rx="4" width="58" y="2"/><path id="Shape" d="m58 4v4h-58v-4c0-2.209139 1.790861-4 4-4h50c2.209139 0 4 1.790861 4 4z" fill="#ff5364"/><path id="Shape" d="m53 5h-24c-.5522847 0-1-.44771525-1-1s.4477153-1 1-1h24c.5522847 0 1 .44771525 1 1s-.4477153 1-1 1z" fill="#fff"/><circle id="Oval" cx="4" cy="4" fill="#35495e" r="1"/><circle id="Oval" cx="8" cy="4" fill="#35495e" r="1"/><circle id="Oval" cx="12" cy="4" fill="#35495e" r="1"/><rect id="Rectangle-path" fill="#fff" height="42" rx="2" width="50" x="4" y="12"/><path id="Rectangle-path" d="m28 12h2v42h-2z" fill="#ecf0f1"/><path id="Shape" d="m26 28c0 .5522847-.4477153 1-1 1h-21v-2h21c.5522847 0 1 .4477153 1 1z" fill="#ecf0f1"/><path id="Shape" d="m54 27v2h-21c-.5522847 0-1-.4477153-1-1s.4477153-1 1-1z" fill="#ecf0f1"/><path id="Shape" d="m20 25c-.5522847 0-1-.4477153-1-1v-4c0-1.6568542-1.3431458-3-3-3s-3 1.3431458-3 3v4c0 .5522847-.4477153 1-1 1s-1-.4477153-1-1v-4c.0000001-2.7614237 2.2385763-4.9999999 5-4.9999999s4.9999999 2.2385762 5 4.9999999v4c0 .5522847-.4477153 1-1 1z" fill="#ff5364"/><path id="Shape" d="m20 22h-8c-.5522847 0-1-.4477153-1-1s.4477153-1 1-1h8c.5522847 0 1 .4477153 1 1s-.4477153 1-1 1z" fill="#ff5364"/><path id="Shape" d="m45 19h-8c-.5522847 0-1-.4477153-1-1s.4477153-1 1-1h8c.5522847 0 1 .4477153 1 1s-.4477153 1-1 1z" fill="#ff5364"/><path id="Shape" d="m41 19c-.5522847 0-1-.4477153-1-1v-2c0-.5522847.4477153-1 1-1s1 .4477153 1 1v2c0 .5522847-.4477153 1-1 1z" fill="#ff5364"/><path id="Shape" d="m39 25h-1c-.5522847 0-1-.4477153-1-1s.4477153-1 1-1h1c1.6568542 0 3-1.3431458 3-3v-2c0-.5522847.4477153-1 1-1s1 .4477153 1 1v2c0 2.7614237-2.2385763 5-5 5z" fill="#ff5364"/><path id="Shape" d="m44 25h-1c-1.7785978.000527-3.4235868-.9438185-4.32-2.48-.2484017-.4748504-.0783237-1.0611063.3856398-1.3292932.4639634-.268187 1.0568642-.1229594 1.3443602.3292932.5395019.9180161 1.5251929 1.4812681 2.59 1.48h1c.5522847 0 1 .4477153 1 1s-.4477153 1-1 1z" fill="#ff5364"/><g fill="#35495e"><path id="Shape" d="m9 33h-1c-.55228475 0-1-.4477153-1-1s.44771525-1 1-1h1c.55228475 0 1 .4477153 1 1s-.44771525 1-1 1z"/><path id="Shape" d="m25 33h-12c-.5522847 0-1-.4477153-1-1s.4477153-1 1-1h12c.5522847 0 1 .4477153 1 1s-.4477153 1-1 1z"/><path id="Shape" d="m21 38h-13c-.55228475 0-1-.4477153-1-1s.44771525-1 1-1h13c.5522847 0 1 .4477153 1 1s-.4477153 1-1 1z"/><path id="Shape" d="m17 42h-9c-.55228475 0-1-.4477153-1-1s.44771525-1 1-1h9c.5522847 0 1 .4477153 1 1s-.4477153 1-1 1z"/><path id="Shape" d="m21 46h-13c-.55228475 0-1-.4477153-1-1s.44771525-1 1-1h13c.5522847 0 1 .4477153 1 1s-.4477153 1-1 1z"/><path id="Shape" d="m10 50h-2c-.55228475 0-1-.4477153-1-1s.44771525-1 1-1h2c.5522847 0 1 .4477153 1 1s-.4477153 1-1 1z"/><path id="Shape" d="m33 34c-.5522847 0-1-.4477153-1-1v-1c0-.5522847.4477153-1 1-1s1 .4477153 1 1v1c0 .5522847-.4477153 1-1 1z"/><path id="Shape" d="m33 51c-.5522847 0-1-.4477153-1-1v-13c0-.5522847.4477153-1 1-1s1 .4477153 1 1v13c0 .5522847-.4477153 1-1 1z"/><path id="Shape" d="m38 44c-.5522847 0-1-.4477153-1-1v-11c0-.5522847.4477153-1 1-1s1 .4477153 1 1v11c0 .5522847-.4477153 1-1 1z"/><path id="Shape" d="m42 37c-.5522847 0-1-.4477153-1-1v-4c0-.5522847.4477153-1 1-1s1 .4477153 1 1v4c0 .5522847-.4477153 1-1 1z"/><path id="Shape" d="m46 47c-.5522847 0-1-.4477153-1-1v-14c0-.5522847.4477153-1 1-1s1 .4477153 1 1v14c0 .5522847-.4477153 1-1 1z"/><path id="Shape" d="m50 39c-.5522847 0-1-.4477153-1-1v-6c0-.5522847.4477153-1 1-1s1 .4477153 1 1v6c0 .5522847-.4477153 1-1 1z"/></g></g></svg>