<svg id="Capa_1" enable-background="new 0 0 512 512" height="512" viewBox="0 0 512 512" width="512" xmlns="http://www.w3.org/2000/svg"><g><g><g><path d="m7.5 7.5h165.667v497h-165.667z" fill="#e28086"/></g><g><path d="m152.963 7.5h20.203v497h-20.203z" fill="#dd636e"/></g><g><path d="m73.161 337.823h34.346v96.976h-34.346z" fill="#efecef" transform="matrix(0 1 -1 0 476.644 295.978)"/></g><g><path d="m-57.15 140.841h294.967v96.976h-294.967z" fill="#efecef" transform="matrix(0 1 -1 0 279.663 98.996)"/></g><g><circle cx="90.333" cy="452.982" fill="#544f57" r="17.173"/></g></g><g><g><path d="m173.167 7.5h165.667v497h-165.667z" fill="#bed8fb"/></g><g><path d="m318.63 7.5h20.203v497h-20.203z" fill="#9dc6fb"/></g><g><path d="m238.827 337.823h34.346v96.976h-34.346z" fill="#efecef" transform="matrix(0 1 -1 0 642.311 130.311)"/></g><g><path d="m108.516 140.841h294.967v96.976h-294.967z" fill="#efecef" transform="matrix(0 1 -1 0 445.329 -66.671)"/></g><g><circle cx="256" cy="452.982" fill="#544f57" r="17.173"/></g></g><g><g><path d="m338.833 7.5h165.667v497h-165.667z" fill="#b3e59f"/></g><g><path d="m484.297 7.5h20.203v497h-20.203z" fill="#95d6a4"/></g><g><path d="m404.494 337.823h34.346v96.976h-34.346z" fill="#efecef" transform="matrix(0 1 -1 0 807.978 -35.356)"/></g><g><path d="m274.183 140.841h294.967v96.976h-294.967z" fill="#efecef" transform="matrix(0 1 -1 0 610.996 -232.337)"/></g><g><circle cx="421.667" cy="452.982" fill="#544f57" r="17.173"/></g></g><g><path d="m34.346 403.484c0 4.142 3.357 7.5 7.5 7.5h96.976c4.143 0 7.5-3.358 7.5-7.5v-34.346c0-4.142-3.357-7.5-7.5-7.5h-96.976c-4.143 0-7.5 3.358-7.5 7.5zm15-26.846h81.976v19.346h-81.976z"/><path d="m104.476 262.642h-28.285c-4.143 0-7.5 3.358-7.5 7.5s3.357 7.5 7.5 7.5h28.284c4.143 0 7.5-3.358 7.5-7.5s-3.357-7.5-7.499-7.5z"/><path d="m104.476 294.967h-28.285c-4.143 0-7.5 3.358-7.5 7.5s3.357 7.5 7.5 7.5h28.284c4.143 0 7.5-3.358 7.5-7.5s-3.357-7.5-7.499-7.5z"/><path d="m104.476 230.317h-28.285c-4.143 0-7.5 3.358-7.5 7.5s3.357 7.5 7.5 7.5h28.284c4.143 0 7.5-3.358 7.5-7.5s-3.357-7.5-7.499-7.5z"/><path d="m41.846 344.313h96.976c4.143 0 7.5-3.358 7.5-7.5v-294.967c0-4.142-3.357-7.5-7.5-7.5h-96.976c-4.143 0-7.5 3.358-7.5 7.5v294.967c0 4.142 3.357 7.5 7.5 7.5zm7.5-294.967h81.976v279.967h-81.976z"/><path d="m65.66 452.982c0 13.604 11.068 24.672 24.673 24.672s24.673-11.068 24.673-24.672-11.068-24.673-24.673-24.673-24.673 11.068-24.673 24.673zm34.346 0c0 5.333-4.339 9.672-9.673 9.672s-9.673-4.339-9.673-9.672 4.339-9.673 9.673-9.673 9.673 4.339 9.673 9.673z"/><path d="m200.012 403.484c0 4.142 3.357 7.5 7.5 7.5h96.977c4.143 0 7.5-3.358 7.5-7.5v-34.346c0-4.142-3.357-7.5-7.5-7.5h-96.977c-4.143 0-7.5 3.358-7.5 7.5zm15-26.846h81.977v19.346h-81.977z"/><path d="m270.143 262.642h-28.285c-4.143 0-7.5 3.358-7.5 7.5s3.357 7.5 7.5 7.5h28.285c4.143 0 7.5-3.358 7.5-7.5s-3.358-7.5-7.5-7.5z"/><path d="m270.143 294.967h-28.285c-4.143 0-7.5 3.358-7.5 7.5s3.357 7.5 7.5 7.5h28.285c4.143 0 7.5-3.358 7.5-7.5s-3.358-7.5-7.5-7.5z"/><path d="m270.143 230.317h-28.285c-4.143 0-7.5 3.358-7.5 7.5s3.357 7.5 7.5 7.5h28.285c4.143 0 7.5-3.358 7.5-7.5s-3.358-7.5-7.5-7.5z"/><path d="m207.512 344.313h96.977c4.143 0 7.5-3.358 7.5-7.5v-294.967c0-4.142-3.357-7.5-7.5-7.5h-96.977c-4.143 0-7.5 3.358-7.5 7.5v294.967c0 4.142 3.357 7.5 7.5 7.5zm7.5-294.967h81.977v279.967h-81.977z"/><path d="m231.327 452.982c0 13.604 11.068 24.672 24.673 24.672s24.673-11.068 24.673-24.672-11.069-24.673-24.673-24.673-24.673 11.068-24.673 24.673zm34.346 0c0 5.333-4.339 9.672-9.673 9.672s-9.673-4.339-9.673-9.672 4.339-9.673 9.673-9.673 9.673 4.339 9.673 9.673z"/><path d="m477.654 403.484v-34.346c0-4.142-3.357-7.5-7.5-7.5h-96.976c-4.143 0-7.5 3.358-7.5 7.5v34.346c0 4.142 3.357 7.5 7.5 7.5h96.976c4.143 0 7.5-3.358 7.5-7.5zm-15-7.5h-81.976v-19.346h81.976z"/><path d="m407.524 277.642h28.284c4.143 0 7.5-3.358 7.5-7.5s-3.357-7.5-7.5-7.5h-28.284c-4.143 0-7.5 3.358-7.5 7.5s3.358 7.5 7.5 7.5z"/><path d="m407.524 309.967h28.284c4.143 0 7.5-3.358 7.5-7.5s-3.357-7.5-7.5-7.5h-28.284c-4.143 0-7.5 3.358-7.5 7.5s3.358 7.5 7.5 7.5z"/><path d="m407.524 245.317h28.284c4.143 0 7.5-3.358 7.5-7.5s-3.357-7.5-7.5-7.5h-28.284c-4.143 0-7.5 3.358-7.5 7.5s3.358 7.5 7.5 7.5z"/><path d="m477.654 41.846c0-4.142-3.357-7.5-7.5-7.5h-96.976c-4.143 0-7.5 3.358-7.5 7.5v294.967c0 4.142 3.357 7.5 7.5 7.5h96.976c4.143 0 7.5-3.358 7.5-7.5zm-15 287.467h-81.976v-279.967h81.976z"/><path d="m396.994 452.982c0 13.604 11.068 24.672 24.673 24.672s24.673-11.068 24.673-24.672-11.068-24.673-24.673-24.673-24.673 11.068-24.673 24.673zm34.346 0c0 5.333-4.339 9.672-9.673 9.672s-9.673-4.339-9.673-9.672 4.339-9.673 9.673-9.673 9.673 4.339 9.673 9.673z"/><path d="m504.5 226.746c4.143 0 7.5-3.358 7.5-7.5v-211.746c0-4.142-3.357-7.5-7.5-7.5h-497c-4.143 0-7.5 3.358-7.5 7.5v411.754c0 4.142 3.357 7.5 7.5 7.5s7.5-3.358 7.5-7.5v-404.254h150.667v101.382c0 4.142 3.357 7.5 7.5 7.5s7.5-3.358 7.5-7.5v-101.382h150.666v482h-150.666v-345.429c0-4.142-3.357-7.5-7.5-7.5s-7.5 3.358-7.5 7.5v345.429h-150.667v-42.509c0-4.142-3.357-7.5-7.5-7.5s-7.5 3.358-7.5 7.5v50.009c0 4.142 3.357 7.5 7.5 7.5h497c4.143 0 7.5-3.358 7.5-7.5v-250.071c0-4.142-3.357-7.5-7.5-7.5s-7.5 3.358-7.5 7.5v242.571h-150.667v-482h150.667v204.246c0 4.142 3.357 7.5 7.5 7.5z"/></g></g></svg>