<svg height="511pt" viewBox="-7 1 511 511.99814" width="511pt" xmlns="http://www.w3.org/2000/svg"><path d="m287.132812 10.082031h44.570313c3.117187 0 5.644531 2.527344 5.644531 5.640625v104.96875c0 3.117188-2.527344 5.644532-5.644531 5.644532h-166.632813c-3.117187 0-5.644531-2.527344-5.644531-5.644532v-104.96875c0-3.113281 2.527344-5.640625 5.644531-5.640625h41.179688" fill="#ff415b"/><g fill="#00d7df"><path d="m149.042969 313.703125h-91.5c-2.785157 0-5.039063-2.257813-5.039063-5.042969v-91.5c0-2.78125 2.253906-5.039062 5.039063-5.039062h91.5c2.78125 0 5.039062 2.257812 5.039062 5.039062v91.5c.003907 2.785156-2.253906 5.042969-5.039062 5.042969zm0 0"/><path d="m433.886719 313.703125h-91.5c-2.78125 0-5.039063-2.257813-5.039063-5.042969v-91.5c0-2.78125 2.257813-5.039062 5.039063-5.039062h91.5c2.785156 0 5.039062 2.257812 5.039062 5.039062v91.5c0 2.785156-2.253906 5.042969-5.039062 5.042969zm0 0"/><path d="m208.34375 501.917969h-5.105469c-3.117187 0-5.640625-2.527344-5.640625-5.644531v-90.292969c0-3.117188 2.523438-5.644531 5.640625-5.644531h90.296875c3.117188 0 5.640625 2.527343 5.640625 5.644531v90.292969c0 3.117187-2.523437 5.644531-5.640625 5.644531h-5.140625"/><path d="m107.28125 501.917969h-91.5c-2.78125 0-5.039062-2.257813-5.039062-5.039063v-91.5c0-2.785156 2.257812-5.042968 5.039062-5.042968h91.5c2.785156 0 5.039062 2.257812 5.039062 5.042968v91.5c0 2.78125-2.253906 5.039063-5.039062 5.039063zm0 0"/><path d="m481.855469 501.917969h-91.5c-2.78125 0-5.039063-2.257813-5.039063-5.039063v-91.5c0-2.785156 2.257813-5.042968 5.039063-5.042968h91.5c2.785156 0 5.039062 2.257812 5.039062 5.042968v91.5c0 2.78125-2.253906 5.039063-5.039062 5.039063zm0 0"/></g><path d="m198.035156 91.277344c1.96875 1.96875 4.550782 2.953125 7.128906 2.953125 2.582032 0 5.160157-.984375 7.128907-2.953125l31.886719-31.882813c3.933593-3.9375 3.933593-10.320312 0-14.257812-3.9375-3.9375-10.320313-3.9375-14.257813 0l-31.886719 31.882812c-3.933594 3.941407-3.933594 10.324219 0 14.257813zm0 0"/><path d="m251.085938 91.277344c1.96875 1.96875 4.546874 2.953125 7.125 2.953125 2.582031 0 5.160156-.984375 7.128906-2.953125l31.886718-31.882813c3.9375-3.9375 3.9375-10.320312 0-14.257812s-10.320312-3.9375-14.257812 0l-31.886719 31.882812c-3.933593 3.941407-3.933593 10.324219.003907 14.257813zm0 0"/><path d="m481.695312 390.253906h-35.667968v-33.464844c0-5.566406-4.515625-10.082031-10.082032-10.082031h-37.886718v-22.925781h35.667968c8.335938 0 15.121094-6.78125 15.121094-15.121094v-91.5c0-8.335937-6.785156-15.121094-15.121094-15.121094h-35.667968v-32.65625c0-5.570312-4.515625-10.082031-10.082032-10.082031h-129.671874v-22.882812h73.238281c8.667969 0 15.722656-7.054688 15.722656-15.726563v-104.96875c0-8.667968-7.054687-15.722656-15.722656-15.722656h-44.570313c-5.570312 0-10.082031 4.511719-10.082031 10.082031 0 5.566407 4.511719 10.082031 10.082031 10.082031h40.132813v96.089844h-157.757813v-96.089844h36.742188c5.566406 0 10.082031-4.515624 10.082031-10.082031 0-5.570312-4.515625-10.082031-10.082031-10.082031h-41.183594c-8.667969 0-15.722656 7.054688-15.722656 15.722656v104.96875c0 8.671875 7.054687 15.726563 15.722656 15.726563h73.238281v22.882812h-135.011719c-5.566406 0-10.082031 4.511719-10.082031 10.082031v32.65625h-35.667969c-8.339843 0-15.121093 6.785157-15.121093 15.121094v91.5c0 8.339844 6.78125 15.121094 15.121093 15.121094h35.667969v22.925781h-31.132812c-5.570313 0-10.082031 4.515625-10.082031 10.082031v33.464844h-36.214844c-8.339844 0-15.121094 6.785156-15.121094 15.121094v91.5c0 8.339844 6.78125 15.125 15.121094 15.125h91.5c8.335937 0 15.121094-6.785156 15.121094-15.125v-91.5c0-8.335938-6.785157-15.121094-15.121094-15.121094h-35.125v-23.386718h166.148437v23.386718h-35.066406c-8.671875 0-15.722656 7.054688-15.722656 15.726563v90.292969c0 8.671874 7.050781 15.726562 15.722656 15.726562h5.105469c5.566406 0 10.082031-4.515625 10.082031-10.082031 0-5.566407-4.515625-10.082031-10.082031-10.082031h-.667969v-81.417969h81.417969v81.417969h-.703125c-5.566407 0-10.082031 4.515624-10.082031 10.082031 0 5.566406 4.515624 10.082031 10.082031 10.082031h5.140625c8.671875 0 15.722656-7.054688 15.722656-15.726562v-90.292969c0-8.671875-7.050781-15.726563-15.722656-15.726563h-35.066406v-23.386718h167.558593v23.386718h-35.667969c-8.339843 0-15.121093 6.785156-15.121093 15.121094v91.5c0 8.339844 6.78125 15.125 15.121093 15.125h91.5c8.335938 0 15.121094-6.785156 15.121094-15.125v-91.5c0-8.335938-6.785156-15.121094-15.121094-15.121094zm-379.617187 20.164063v81.417969h-81.417969v-81.417969zm-39.65625-106.796875v-81.417969h81.417969v81.417969zm315.472656 43.085937h-264.679687v-22.925781h35.667968c8.335938 0 15.121094-6.78125 15.121094-15.121094v-91.5c0-8.335937-6.785156-15.121094-15.121094-15.121094h-35.667968v-22.578124h264.679687v22.578124h-35.667969c-8.339843 0-15.121093 6.785157-15.121093 15.121094v91.5c0 8.339844 6.78125 15.121094 15.121093 15.121094h35.667969zm-30.628906-43.085937v-81.417969h81.417969v81.417969zm129.386719 188.214844h-81.417969v-81.417969h81.417969zm0 0"/><path d="m240.699219 18.109375.296875.222656c1.824218 1.386719 3.964844 2.058594 6.09375 2.058594 3.042968 0 6.050781-1.375 8.03125-3.984375 3.371094-4.433594 2.507812-10.753906-1.925782-14.125l-.296874-.226562c-4.433594-3.367188-10.757813-2.507813-14.125 1.929687-3.371094 4.429687-2.507813 10.753906 1.925781 14.125zm0 0"/><path d="m254.46875 493.652344-.292969-.222656c-4.433593-3.367188-10.757812-2.503907-14.128906 1.929687-3.367187 4.433594-2.5 10.757813 1.933594 14.125l.292969.226563c1.824218 1.382812 3.964843 2.054687 6.089843 2.054687 3.046875 0 6.054688-1.375 8.039063-3.984375 3.367187-4.4375 2.503906-10.761719-1.933594-14.128906zm0 0"/></svg>