<?xml version="1.0" ?><!DOCTYPE svg  PUBLIC '-//W3C//DTD SVG 1.1//EN'  'http://www.w3.org/Graphics/SVG/1.1/DTD/svg11.dtd'><svg enable-background="new 0 0 65 65" height="65px" version="1.1" viewBox="0 0 65 65" width="65px" xml:space="preserve" xmlns="http://www.w3.org/2000/svg" xmlns:xlink="http://www.w3.org/1999/xlink"><g id="Layer_2"><g><path d="M15,62H4c-1.654,0-3-1.346-3-3V12c0-1.654,1.346-3,3-3h11c1.654,0,3,1.346,3,3v47    C18,60.654,16.654,62,15,62z M4,11c-0.551,0-1,0.448-1,1v47c0,0.552,0.449,1,1,1h11c0.551,0,1-0.448,1-1V12c0-0.552-0.449-1-1-1H4    z" fill="#92278F"/></g><g><path d="M32,62H21c-1.654,0-3-1.346-3-3V12c0-1.654,1.346-3,3-3h11c1.654,0,3,1.346,3,3v47    C35,60.654,33.654,62,32,62z M21,11c-0.551,0-1,0.448-1,1v47c0,0.552,0.449,1,1,1h11c0.551,0,1-0.448,1-1V12c0-0.552-0.449-1-1-1    H21z" fill="#FFBE06"/></g><g><path d="M10.786,45H8.214C6.993,45,6,43.848,6,42.431V16.568C6,15.152,6.993,14,8.214,14h2.571    C12.007,14,13,15.152,13,16.568v25.862C13,43.848,12.007,45,10.786,45z M8.214,15C7.545,15,7,15.703,7,16.568v25.862    C7,43.296,7.545,44,8.214,44h2.571C11.455,44,12,43.296,12,42.431V16.568C12,15.703,11.455,15,10.786,15H8.214z" fill="#92278F"/></g><g><path d="M9.5,55.5c-1.654,0-3-1.346-3-3s1.346-3,3-3s3,1.346,3,3S11.154,55.5,9.5,55.5z M9.5,50.5    c-1.103,0-2,0.897-2,2s0.897,2,2,2s2-0.897,2-2S10.603,50.5,9.5,50.5z" fill="#92278F"/></g><g><path d="M27.786,45h-2.571C23.993,45,23,43.848,23,42.431V16.568C23,15.152,23.993,14,25.214,14h2.571    C29.007,14,30,15.152,30,16.568v25.862C30,43.848,29.007,45,27.786,45z M25.214,15C24.545,15,24,15.703,24,16.568v25.862    C24,43.296,24.545,44,25.214,44h2.571C28.455,44,29,43.296,29,42.431V16.568C29,15.703,28.455,15,27.786,15H25.214z" fill="#FFBE06"/></g><g><path d="M26.5,55.5c-1.654,0-3-1.346-3-3s1.346-3,3-3s3,1.346,3,3S28.154,55.5,26.5,55.5z M26.5,50.5    c-1.103,0-2,0.897-2,2s0.897,2,2,2s2-0.897,2-2S27.603,50.5,26.5,50.5z" fill="#FFBE06"/></g><path d="M8.5,38.5C8.224,38.5,8,38.276,8,38V18c0-0.276,0.224-0.5,0.5-0.5S9,17.724,9,18v20   C9,38.276,8.776,38.5,8.5,38.5z" fill="#92278F"/><path d="M10.5,29.5c-0.276,0-0.5-0.224-0.5-0.5V18c0-0.276,0.224-0.5,0.5-0.5S11,17.724,11,18v11   C11,29.276,10.776,29.5,10.5,29.5z" fill="#92278F"/><g><path d="M50.086,62.628c-1.366,0-2.56-0.924-2.903-2.246l-11.82-45.488c-0.202-0.776-0.089-1.584,0.317-2.274    c0.406-0.691,1.057-1.183,1.833-1.384l10.646-2.768c1.581-0.412,3.251,0.581,3.658,2.15l11.82,45.488    c0.416,1.6-0.548,3.241-2.147,3.659l-10.648,2.766C50.594,62.596,50.34,62.628,50.086,62.628z M48.914,10.371    c-0.084,0-0.169,0.011-0.252,0.032l-10.646,2.768c-0.259,0.067-0.476,0.23-0.61,0.461c-0.136,0.23-0.173,0.5-0.106,0.758    l11.82,45.489c0.136,0.523,0.688,0.852,1.22,0.717l10.646-2.766c0.533-0.14,0.855-0.687,0.716-1.22l-11.82-45.489    C49.767,10.679,49.369,10.371,48.914,10.371z" fill="#00A651"/></g><g><path d="M50.156,45.08c-1.05,0-1.996-0.819-2.3-1.992l-6.504-25.03c-0.356-1.371,0.315-2.736,1.497-3.044    l2.49-0.646c1.172-0.3,2.437,0.572,2.789,1.93l6.503,25.031c0.168,0.647,0.116,1.315-0.149,1.88    c-0.279,0.597-0.758,1.01-1.348,1.164l-2.489,0.646C50.485,45.06,50.321,45.08,50.156,45.08z M45.826,15.305    c-0.08,0-0.16,0.011-0.237,0.031l-2.49,0.646c-0.647,0.168-0.998,0.986-0.78,1.823l6.504,25.03    c0.213,0.82,0.927,1.384,1.569,1.214l2.488-0.646c0.297-0.077,0.543-0.297,0.694-0.619c0.166-0.354,0.197-0.781,0.087-1.204    l-6.503-25.031C46.972,15.828,46.411,15.305,45.826,15.305z" fill="#00A651"/></g><g><path d="M53.776,54.954c-1.366,0-2.56-0.924-2.904-2.246c-0.202-0.776-0.089-1.584,0.317-2.274    c0.406-0.691,1.057-1.183,1.833-1.384c0.248-0.064,0.502-0.097,0.757-0.097c1.364,0,2.557,0.923,2.901,2.245    c0.202,0.775,0.089,1.583-0.316,2.274s-1.057,1.184-1.832,1.386C54.283,54.922,54.029,54.954,53.776,54.954z M53.778,49.953    c-0.169,0-0.339,0.021-0.505,0.065c-0.518,0.134-0.951,0.461-1.222,0.922c-0.271,0.46-0.346,0.999-0.211,1.516    c0.271,1.045,1.377,1.707,2.44,1.434c0.516-0.134,0.95-0.462,1.221-0.923s0.346-1,0.211-1.517    C55.482,50.568,54.687,49.953,53.778,49.953z" fill="#00A651"/></g><path d="M47.903,33.832c-0.222,0-0.425-0.149-0.483-0.374l-3.772-14.519c-0.069-0.268,0.091-0.54,0.358-0.61   c0.267-0.067,0.54,0.091,0.61,0.358l3.772,14.519c0.069,0.268-0.091,0.54-0.358,0.61C47.987,33.827,47.945,33.832,47.903,33.832z" fill="#00A651"/><path d="M48.833,29.457c-0.222,0-0.425-0.149-0.483-0.374l-2.766-10.646c-0.069-0.268,0.091-0.54,0.358-0.61   c0.266-0.068,0.54,0.091,0.609,0.358l2.766,10.646c0.069,0.268-0.091,0.54-0.358,0.61C48.917,29.452,48.875,29.457,48.833,29.457z" fill="#00A651"/><path d="M25.5,31.5c-0.276,0-0.5-0.224-0.5-0.5V18c0-0.276,0.224-0.5,0.5-0.5S26,17.724,26,18v13   C26,31.276,25.776,31.5,25.5,31.5z" fill="#FFBE06"/><path d="M27.5,41.5c-0.276,0-0.5-0.224-0.5-0.5V18c0-0.276,0.224-0.5,0.5-0.5S28,17.724,28,18v23   C28,41.276,27.776,41.5,27.5,41.5z" fill="#FFBE06"/></g><g id="Layer_3"/></svg>