<svg xmlns="http://www.w3.org/2000/svg" viewBox="0 0 288 70.2">
    <defs id="SvgjsDefs1268">
        <linearGradient id="SvgjsLinearGradient1275">
            <stop id="SvgjsStop1276" stop-color="#8f5e25" offset="0"></stop>
            <stop id="SvgjsStop1277" stop-color="#fbf4a1" offset="0.5"></stop>
            <stop id="SvgjsStop1278" stop-color="#8f5e25" offset="1"></stop>
        </linearGradient>
        <linearGradient id="SvgjsLinearGradient1279">
            <stop id="SvgjsStop1280" stop-color="#8f5e25" offset="0"></stop>
            <stop id="SvgjsStop1281" stop-color="#fbf4a1" offset="0.5"></stop>
            <stop id="SvgjsStop1282" stop-color="#8f5e25" offset="1"></stop>
        </linearGradient>
    </defs>
    <title>Ресурс 6</title>
    <g id="SvgjsG1269" featurekey="symbolContainer" transform="matrix(0.9,0,0,0.9,0,0)" fill="#fff"><rect xmlns="http://www.w3.org/2000/svg" width="75" height="78" rx="10" ry="10"></rect></g><g id="SvgjsG1270" featurekey="monogramFeature-0" transform="matrix(0.8966120427909285,0,0,0.8966120427909285,13.30846611847345,0.34788395594258326)" fill="#111"><path d="M27.802 17.555 c0.36416 -1.1497 15.14 8.1732 14.192 9.069 c-4.416 5.3687 -9.0282 10.548 -13.789 15.53 c2.5036 4.8386 5.2645 9.5676 8.3154 14.143 c0.8358 1.2979 -2.9402 4.749 -4.2952 3.7658 c-3.8357 -3.4124 -7.497 -7.041 -10.998 -10.843 c-3.6508 3.577 -7.3638 7.0596 -11.127 10.455 c-1.2407 1.0919 -5.1017 -2.262 -4.3181 -3.7391 c3.1181 -4.6625 6.1332 -9.3672 9.0024 -14.125 c-4.1725 -5.0859 -8.0856 -10.424 -11.75 -15.949 c-0.8409 -0.97494 14.86 -8.6394 15.074 -7.512 c1.2159 3.551 2.5417 7.0782 3.9793 10.572 c1.997 -3.755 3.9088 -7.5414 5.7145 -11.367 z"></path></g><g id="SvgjsG1271" featurekey="nameFeature-0" transform="matrix(2.276596624220173,0,0,2.276596624220173,84.35719268151443,-24.316832037428227)" fill="#fff"><path d="M14.74 26 l7.3808 10.544 c0.69564 0.99372 0.4538 2.363 -0.53964 3.0586 c-0.3832 0.26848 -0.82268 0.39723 -1.2575 0.39723 c-0.69256 0 -1.3736 -0.32668 -1.801 -0.93692 l-6.4636 -9.2336 l-6.4636 9.2336 c-0.42716 0.61052 -1.1088 0.93692 -1.801 0.93692 c-0.4348 0 -0.87428 -0.12875 -1.2575 -0.39723 c-0.99344 -0.69564 -1.2353 -2.0649 -0.53964 -3.0586 l7.3808 -10.544 l-7.3808 -10.544 c-0.6956 -0.99372 -0.45376 -2.363 0.53968 -3.0586 c0.994 -0.69564 2.363 -0.4538 3.0586 0.53964 l6.4636 9.2336 l6.4636 -9.2336 c0.69532 -0.99372 2.0646 -1.2356 3.0586 -0.53964 c0.99344 0.6956 1.2353 2.0648 0.53968 3.0586 z M40.906 27.345 c1.213 0 2.196 0.98328 2.196 2.196 c0 5.7668 -4.692 10.459 -10.459 10.459 s-10.459 -4.692 -10.459 -10.459 l0 -7.0824 c0 -5.7668 4.692 -10.459 10.459 -10.459 s10.459 4.692 10.459 10.459 c0 1.2128 -0.98328 2.196 -2.196 2.196 s-2.196 -0.98328 -2.196 -2.196 c0 -3.3452 -2.7215 -6.0668 -6.0668 -6.0668 s-6.0668 2.7215 -6.0668 6.0668 l0 7.0824 c0 3.3452 2.7215 6.0668 6.0668 6.0668 s6.0668 -2.7215 6.0668 -6.0668 c0 -1.2128 0.98328 -2.196 2.196 -2.196 z M65.686 21.279 c0 5.1164 -4.162 9.2784 -9.2776 9.2784 l-4.6035 0 l5.0756 5.8008 c0.79856 0.913 0.70604 2.3004 -0.20668 3.099 c-0.41644 0.36453 -0.93196 0.54324 -1.4453 0.54324 c-0.61104 0 -1.2191 -0.25363 -1.6534 -0.74996 l-8.2628 -9.4432 c-0.56768 -0.64868 -0.70332 -1.5691 -0.34726 -2.3536 s1.1381 -1.2885 1.9998 -1.2885 l9.4428 0 c2.6943 0 4.8864 -2.192 4.8864 -4.8864 s-2.1922 -4.8864 -4.8864 -4.8864 l-4.1412 0 l4.5136 4.5136 c0.85756 0.85756 0.85756 2.248 0 3.1056 c-0.85784 0.85784 -2.248 0.85784 -3.1058 0 l-8.2628 -8.2628 c-0.62808 -0.62808 -0.81584 -1.5726 -0.47576 -2.3932 s1.1408 -1.3555 2.0289 -1.3555 l9.4428 0 c5.1164 0 9.2784 4.1624 9.2784 9.2784 z M89.44999999999999 31.9008 c0 0.00054688 0 0.0010938 0.00054688 0.0016406 l0 5.9014 c0 1.2128 -0.98328 2.196 -2.196 2.196 s-2.196 -0.98328 -2.196 -2.196 l0 -4.9925 l-13.314 -13.314 l0 18.306 c0 1.2128 -0.98328 2.196 -2.196 2.196 s-2.196 -0.98328 -2.196 -2.196 l0 -23.608 c0 -0.88832 0.535 -1.6891 1.3555 -2.0289 c0.82104 -0.33957 1.7654 -0.15207 2.3932 0.476 l7.3 7.3 l7.3 -7.3 c0.6278 -0.62808 1.5726 -0.8164 2.3932 -0.476 c0.82052 0.33984 1.3555 1.1406 1.3555 2.0289 l0 17.705 z M81.50699999999999 23.049 l3.5513 3.551 l0 -7.1024 z"></path></g>
</svg>