<svg xmlns="http://www.w3.org/2000/svg" viewBox="0 0 158.5 48.7"><defs/><title>Ресурс 5</title><g id="Слой_2" data-name="Слой 2"><g id="Визитка_Волков_webwizardry.ru_Изображение" data-name="Визитка Волков webwizardry.ru Изображение"><path d="M56.12,26a2.15,2.15,0,0,1,0,.47c0,.19-.1.46-.19.81L51.69,41.48a1.34,1.34,0,0,1-.22.48,1,1,0,0,1-.44.29,2.92,2.92,0,0,1-.82.14c-.36,0-.82,0-1.4,0s-1,0-1.41,0a3.75,3.75,0,0,1-.85-.15.93.93,0,0,1-.45-.29,1.31,1.31,0,0,1-.21-.46L43.26,32l0-.16,0,.16-2.43,9.53a1.33,1.33,0,0,1-.2.48.9.9,0,0,1-.45.29,3.41,3.41,0,0,1-.86.14c-.36,0-.83,0-1.41,0s-1.06,0-1.41,0a3.75,3.75,0,0,1-.85-.15.85.85,0,0,1-.44-.29,1.16,1.16,0,0,1-.22-.46L30.78,27.29a5.35,5.35,0,0,1-.21-.8,3.08,3.08,0,0,1,0-.48.48.48,0,0,1,.1-.31.62.62,0,0,1,.35-.21,3.32,3.32,0,0,1,.68-.11c.29,0,.65,0,1.08,0s.85,0,1.15,0a2.53,2.53,0,0,1,.68.12.68.68,0,0,1,.35.24,1.18,1.18,0,0,1,.14.36l3.12,11.51,0,.21,0-.21L41.16,26.1a1.2,1.2,0,0,1,.17-.36.8.8,0,0,1,.34-.24,2.36,2.36,0,0,1,.65-.12,10.29,10.29,0,0,1,1.06,0,9.68,9.68,0,0,1,1,.05,2.91,2.91,0,0,1,.65.12.63.63,0,0,1,.33.21,1.28,1.28,0,0,1,.15.31l3.13,11.6.05.19,0-.21,3-11.51a1,1,0,0,1,.14-.36.76.76,0,0,1,.36-.24,2.44,2.44,0,0,1,.66-.12c.29,0,.64,0,1.08,0a10.42,10.42,0,0,1,1.06,0,2.88,2.88,0,0,1,.65.11.59.59,0,0,1,.33.21A.62.62,0,0,1,56.12,26Z"/><path class="cls-1" d="M63.72,20.74a2.44,2.44,0,0,1-.55,1.84,3,3,0,0,1-2,.51,3,3,0,0,1-2-.49,2.4,2.4,0,0,1-.52-1.78A2.51,2.51,0,0,1,59.16,19a2.92,2.92,0,0,1,2-.52,3,3,0,0,1,2,.5A2.44,2.44,0,0,1,63.72,20.74Z" style=";fill: rgb(255, 51, 51);;"/><path d="M63.38,41.72a.48.48,0,0,1-.1.31.77.77,0,0,1-.36.22,3.16,3.16,0,0,1-.68.13,10.24,10.24,0,0,1-1.07,0,10.1,10.1,0,0,1-1.07,0,3,3,0,0,1-.68-.13.77.77,0,0,1-.36-.22.49.49,0,0,1-.11-.31V26.08a.49.49,0,0,1,.11-.31.86.86,0,0,1,.36-.23,3.52,3.52,0,0,1,.68-.15,10.1,10.1,0,0,1,1.07-.05,10.24,10.24,0,0,1,1.07.05,3.7,3.7,0,0,1,.68.15.86.86,0,0,1,.36.23.48.48,0,0,1,.1.31Z"/><path d="M78.76,40.51a5.51,5.51,0,0,1-.05.87,2.15,2.15,0,0,1-.14.57.54.54,0,0,1-.23.29.55.55,0,0,1-.31.08H67.78a.88.88,0,0,1-.73-.31,1.69,1.69,0,0,1-.26-1v-.81a4.91,4.91,0,0,1,0-.57,1.94,1.94,0,0,1,.11-.49,2.89,2.89,0,0,1,.21-.49,4.59,4.59,0,0,1,.34-.54L73.35,29H67.8a.6.6,0,0,1-.54-.42,3.32,3.32,0,0,1-.2-1.36,6.81,6.81,0,0,1,0-.85,2.12,2.12,0,0,1,.13-.55.69.69,0,0,1,.23-.29.74.74,0,0,1,.34-.08h9.58a1.34,1.34,0,0,1,.42.05.61.61,0,0,1,.29.19,1.18,1.18,0,0,1,.17.39,2.62,2.62,0,0,1,.06.61v.87a5.72,5.72,0,0,1,0,.62,3,3,0,0,1-.11.52,2,2,0,0,1-.2.49c-.09.16-.19.34-.31.53l-5.83,9.05H78a.59.59,0,0,1,.29.07.56.56,0,0,1,.24.26,1.59,1.59,0,0,1,.15.54A5.36,5.36,0,0,1,78.76,40.51Z"/><path d="M95,41.78a.45.45,0,0,1-.18.38,1.24,1.24,0,0,1-.55.21,7.85,7.85,0,0,1-1.12.06A7.76,7.76,0,0,1,92,42.37a1,1,0,0,1-.51-.21.49.49,0,0,1-.15-.38V40.53a7.13,7.13,0,0,1-2.21,1.62,6.48,6.48,0,0,1-2.75.58,7.59,7.59,0,0,1-2.29-.33,5.16,5.16,0,0,1-1.81-1,4.22,4.22,0,0,1-1.19-1.59,5.41,5.41,0,0,1-.42-2.21,5,5,0,0,1,.54-2.38,4.26,4.26,0,0,1,1.6-1.67,7.86,7.86,0,0,1,2.64-1,19,19,0,0,1,3.68-.32h1.52v-.94a5.5,5.5,0,0,0-.14-1.3,2.16,2.16,0,0,0-.5-.92,1.93,1.93,0,0,0-.91-.54,4.77,4.77,0,0,0-1.42-.18,7,7,0,0,0-2,.25,10.54,10.54,0,0,0-1.54.54c-.45.2-.82.38-1.12.55a1.66,1.66,0,0,1-.73.24.52.52,0,0,1-.34-.12,1,1,0,0,1-.25-.35,3.1,3.1,0,0,1-.15-.57,5.35,5.35,0,0,1,0-.73,3.22,3.22,0,0,1,.09-.86,1.35,1.35,0,0,1,.33-.58,3.53,3.53,0,0,1,.86-.56,11.56,11.56,0,0,1,1.45-.57,12.51,12.51,0,0,1,1.8-.43,13.16,13.16,0,0,1,5.17.19,5.29,5.29,0,0,1,2.15,1.11,4.34,4.34,0,0,1,1.23,1.93A8.86,8.86,0,0,1,95,31.23Zm-4.35-6.72H89a8.7,8.7,0,0,0-1.83.16,3.59,3.59,0,0,0-1.23.47,2,2,0,0,0-.7.77,2.4,2.4,0,0,0-.22,1A2,2,0,0,0,85.63,39a2.46,2.46,0,0,0,1.73.57,3.2,3.2,0,0,0,1.71-.48,6.59,6.59,0,0,0,1.59-1.39Z"/><path d="M109.49,27.5c0,.43,0,.77,0,1a3.33,3.33,0,0,1-.11.63.67.67,0,0,1-.18.32.48.48,0,0,1-.29.09,1,1,0,0,1-.32-.06l-.4-.14-.48-.13a2.65,2.65,0,0,0-.58-.06,2,2,0,0,0-.74.15,3.21,3.21,0,0,0-.76.47,5.51,5.51,0,0,0-.83.84,14.08,14.08,0,0,0-.92,1.3v9.77a.49.49,0,0,1-.11.31.77.77,0,0,1-.36.22,3.05,3.05,0,0,1-.67.13,10.45,10.45,0,0,1-1.08,0,10.24,10.24,0,0,1-1.07,0,3.16,3.16,0,0,1-.68-.13.77.77,0,0,1-.36-.22.48.48,0,0,1-.1-.31V26a.51.51,0,0,1,.09-.3.59.59,0,0,1,.31-.22,2.16,2.16,0,0,1,.59-.13,7.39,7.39,0,0,1,.91-.05,7.88,7.88,0,0,1,.93.05,1.78,1.78,0,0,1,.57.13.68.68,0,0,1,.29.22.51.51,0,0,1,.09.3v2a11.45,11.45,0,0,1,1.16-1.45,5.87,5.87,0,0,1,1-.91,3.26,3.26,0,0,1,1-.47,4.19,4.19,0,0,1,1-.13l.5,0,.54.09a2.62,2.62,0,0,1,.49.14,1.09,1.09,0,0,1,.31.16.52.52,0,0,1,.14.2,1.16,1.16,0,0,1,.08.29,4.76,4.76,0,0,1,0,.55C109.48,26.75,109.49,27.08,109.49,27.5Z"/><path d="M126.65,41.72a.58.58,0,0,1-.09.33.65.65,0,0,1-.3.22,1.88,1.88,0,0,1-.57.12,10.14,10.14,0,0,1-1.8,0,1.88,1.88,0,0,1-.57-.12.67.67,0,0,1-.32-.22.59.59,0,0,1-.1-.33V40a10.21,10.21,0,0,1-2.54,2,6,6,0,0,1-2.94.72,6.12,6.12,0,0,1-3-.7,5.87,5.87,0,0,1-2-1.87,8.29,8.29,0,0,1-1.13-2.75,15.41,15.41,0,0,1-.35-3.31,14.54,14.54,0,0,1,.45-3.77,8.37,8.37,0,0,1,1.31-2.84,5.74,5.74,0,0,1,2.14-1.81,6.5,6.5,0,0,1,3-.64,5.29,5.29,0,0,1,2.4.54,8.58,8.58,0,0,1,2.12,1.57V18.66a.48.48,0,0,1,.1-.31.64.64,0,0,1,.35-.24,2.56,2.56,0,0,1,.68-.15,11.47,11.47,0,0,1,2.14,0,2.39,2.39,0,0,1,.67.15.73.73,0,0,1,.35.24.49.49,0,0,1,.11.31Zm-4.4-10.47a9.52,9.52,0,0,0-1.82-1.83,3,3,0,0,0-1.82-.63,2.51,2.51,0,0,0-1.48.43,3,3,0,0,0-1,1.15,6.13,6.13,0,0,0-.57,1.61,9.13,9.13,0,0,0-.18,1.82,10.94,10.94,0,0,0,.16,1.91,5.77,5.77,0,0,0,.52,1.66,3.16,3.16,0,0,0,1,1.17,2.47,2.47,0,0,0,1.52.44,2.89,2.89,0,0,0,.88-.13,3.4,3.4,0,0,0,.88-.43,6.2,6.2,0,0,0,.93-.78c.31-.33.66-.72,1-1.19Z"/><path d="M141.17,27.5c0,.43,0,.77,0,1a3.46,3.46,0,0,1-.1.63.6.6,0,0,1-.19.32.44.44,0,0,1-.29.09,1,1,0,0,1-.32-.06l-.39-.14-.48-.13a2.65,2.65,0,0,0-.58-.06,1.92,1.92,0,0,0-.74.15,3.25,3.25,0,0,0-.77.47,5.49,5.49,0,0,0-.82.84,14,14,0,0,0-.93,1.3v9.77a.48.48,0,0,1-.1.31.77.77,0,0,1-.36.22,3.16,3.16,0,0,1-.68.13,11.47,11.47,0,0,1-2.14,0,3.16,3.16,0,0,1-.68-.13.77.77,0,0,1-.36-.22.49.49,0,0,1-.11-.31V26a.51.51,0,0,1,.09-.3.67.67,0,0,1,.32-.22,2.07,2.07,0,0,1,.59-.13,7.33,7.33,0,0,1,.9-.05,7.63,7.63,0,0,1,.93.05,1.85,1.85,0,0,1,.58.13.68.68,0,0,1,.29.22.58.58,0,0,1,.08.3v2A12.41,12.41,0,0,1,136,26.55a6.25,6.25,0,0,1,1-.91,3.43,3.43,0,0,1,1-.47,4.06,4.06,0,0,1,1-.13l.49,0,.55.09a2.86,2.86,0,0,1,.49.14,1.25,1.25,0,0,1,.31.16.66.66,0,0,1,.14.2,1.85,1.85,0,0,1,.08.29,4.76,4.76,0,0,1,.05.55C141.16,26.75,141.17,27.08,141.17,27.5Z"/><path d="M153.14,42.32l-1.9,5.56a1.15,1.15,0,0,1-.86.63,11,11,0,0,1-3.18.13,1.61,1.61,0,0,1-.64-.2.48.48,0,0,1-.23-.35,1.2,1.2,0,0,1,.11-.51l2.09-5.26a1.24,1.24,0,0,1-.41-.32,1.5,1.5,0,0,1-.27-.47l-5.4-14.41a3.1,3.1,0,0,1-.23-.94.64.64,0,0,1,.21-.51,1.35,1.35,0,0,1,.71-.26,9.58,9.58,0,0,1,1.33-.07c.51,0,.9,0,1.2,0a2.15,2.15,0,0,1,.68.13.73.73,0,0,1,.37.32,3.42,3.42,0,0,1,.25.63l3.69,10.49h.05l3.38-10.7a1.2,1.2,0,0,1,.27-.61,1.14,1.14,0,0,1,.55-.22,8.45,8.45,0,0,1,1.36-.07,8.72,8.72,0,0,1,1.25.07,1.51,1.51,0,0,1,.74.27.61.61,0,0,1,.24.51,2.68,2.68,0,0,1-.14.77Z"/><path class="cls-2" d="M22.75,7.25a2.48,2.48,0,0,1-.05.42c0,.17-.09.41-.17.72L18.81,21a1.32,1.32,0,0,1-.2.43.85.85,0,0,1-.38.26,3,3,0,0,1-.74.12c-.32,0-.73,0-1.24,0s-.93,0-1.25,0a3.1,3.1,0,0,1-.76-.13.85.85,0,0,1-.4-.26,1.11,1.11,0,0,1-.18-.41l-2.35-8.47,0-.14,0,.14L9.09,21a1.14,1.14,0,0,1-.18.43.79.79,0,0,1-.39.26,3.36,3.36,0,0,1-.77.12c-.32,0-.74,0-1.25,0s-.94,0-1.26,0a3,3,0,0,1-.75-.13.85.85,0,0,1-.4-.26A1.11,1.11,0,0,1,3.91,21L.22,8.39A4.88,4.88,0,0,1,0,7.68a2.53,2.53,0,0,1,0-.43A.42.42,0,0,1,.09,7,.57.57,0,0,1,.4,6.79,2.65,2.65,0,0,1,1,6.69q.38,0,1,0c.42,0,.75,0,1,0a2.48,2.48,0,0,1,.61.11A.57.57,0,0,1,3.9,7,.93.93,0,0,1,4,7.33L6.8,17.56l0,.19,0-.19L9.45,7.33A.79.79,0,0,1,9.6,7a.66.66,0,0,1,.31-.21,2.12,2.12,0,0,1,.57-.11c.24,0,.56,0,.94,0a8,8,0,0,1,.94,0,3,3,0,0,1,.57.1.62.62,0,0,1,.3.19,1,1,0,0,1,.13.28l2.78,10.31.05.17,0-.19L18.88,7.33A.76.76,0,0,1,19,7a.61.61,0,0,1,.31-.21,2.58,2.58,0,0,1,.6-.11c.25,0,.56,0,.95,0s.7,0,.94,0a2.36,2.36,0,0,1,.58.1.54.54,0,0,1,.29.19A.48.48,0,0,1,22.75,7.25Z" style=";fill: rgb(102, 102, 102);;"/><path class="cls-2" d="M37.89,13.84a1.55,1.55,0,0,1-.32,1.07,1.14,1.14,0,0,1-.88.34H28.2a5.88,5.88,0,0,0,.21,1.62,3.08,3.08,0,0,0,.68,1.23,2.79,2.79,0,0,0,1.18.77,5.07,5.07,0,0,0,1.75.27A9.72,9.72,0,0,0,33.83,19a12.17,12.17,0,0,0,1.35-.33c.38-.12.7-.22,1-.32a1.73,1.73,0,0,1,.6-.15.54.54,0,0,1,.24,0,.48.48,0,0,1,.16.2,1.16,1.16,0,0,1,.08.4,5.93,5.93,0,0,1,0,.64c0,.23,0,.43,0,.59a3.53,3.53,0,0,1,0,.41,1,1,0,0,1-.09.29.91.91,0,0,1-.17.23,1.94,1.94,0,0,1-.55.3,9.67,9.67,0,0,1-1.16.36,15.79,15.79,0,0,1-1.61.32,14.64,14.64,0,0,1-1.93.13,10.33,10.33,0,0,1-3.26-.47,5.9,5.9,0,0,1-2.34-1.42,6,6,0,0,1-1.4-2.41,11.51,11.51,0,0,1-.46-3.4,10.69,10.69,0,0,1,.49-3.36,7.14,7.14,0,0,1,1.4-2.53,6.08,6.08,0,0,1,2.25-1.58,7.6,7.6,0,0,1,3-.55,7.62,7.62,0,0,1,3,.52,5.33,5.33,0,0,1,2,1.43,5.68,5.68,0,0,1,1.18,2.16,9.42,9.42,0,0,1,.37,2.72Zm-3.81-1.12a4,4,0,0,0-.67-2.6,2.56,2.56,0,0,0-2.19-.95,3,3,0,0,0-1.31.28,2.72,2.72,0,0,0-.92.76,3.52,3.52,0,0,0-.56,1.13,5.53,5.53,0,0,0-.23,1.38Z" style=";fill: rgb(102, 102, 102);;"/><path class="cls-2" d="M55.16,14.06a12.75,12.75,0,0,1-.41,3.35,7.68,7.68,0,0,1-1.17,2.53,5.27,5.27,0,0,1-1.88,1.61,5.68,5.68,0,0,1-2.54.56A6.87,6.87,0,0,1,47.84,22a4.92,4.92,0,0,1-1.16-.43,6.64,6.64,0,0,1-1.09-.75,11.43,11.43,0,0,1-1.11-1.1v1.52a.47.47,0,0,1-.08.29.6.6,0,0,1-.28.19,2,2,0,0,1-.53.11c-.21,0-.48,0-.79,0s-.59,0-.81,0a2,2,0,0,1-.51-.11.55.55,0,0,1-.28-.19.54.54,0,0,1-.07-.29V.67a.47.47,0,0,1,.09-.28.74.74,0,0,1,.32-.21,2.47,2.47,0,0,1,.6-.13,9.15,9.15,0,0,1,1.91,0,2.47,2.47,0,0,1,.6.13A.74.74,0,0,1,45,.39a.47.47,0,0,1,.09.28V8.38a7.85,7.85,0,0,1,1.07-.91,6.09,6.09,0,0,1,1.06-.62,4.78,4.78,0,0,1,1.09-.35,6.5,6.5,0,0,1,1.19-.11A5.18,5.18,0,0,1,52.09,7a5,5,0,0,1,1.76,1.66,7.59,7.59,0,0,1,1,2.45A13.31,13.31,0,0,1,55.16,14.06Zm-4.08.28A11.85,11.85,0,0,0,51,12.63a4.79,4.79,0,0,0-.47-1.47,2.79,2.79,0,0,0-.85-1,2.22,2.22,0,0,0-1.32-.38,2.79,2.79,0,0,0-.76.11,3,3,0,0,0-.78.37,6,6,0,0,0-.82.69A10.48,10.48,0,0,0,45.06,12v4.62a8.17,8.17,0,0,0,1.59,1.62,2.63,2.63,0,0,0,1.58.56,2.08,2.08,0,0,0,1.3-.4,3.09,3.09,0,0,0,.88-1,4.52,4.52,0,0,0,.51-1.42A7.89,7.89,0,0,0,51.08,14.34Z" style=";fill: rgb(102, 102, 102);;"/></g></g></svg>