<svg xmlns="http://www.w3.org/2000/svg" viewBox="0 0 320 114.28571428571429" preserveAspectRatio="xMidYMid meet" class="css-5yjtbz" id="efccbgha"><defs id="SvgjsDefs1547"><linearGradient id="SvgjsLinearGradient1552"><stop id="SvgjsStop1553" stop-color="#ef4136" offset="0"></stop><stop id="SvgjsStop1554" stop-color="#fbb040" offset="1"></stop></linearGradient></defs><g id="SvgjsG1548" featurekey="symbolFeature-0" transform="matrix(1.7857142857142858,0,0,1.7857142857142858,-10.714285714285715,-3.5714285714285716)" fill="#fff"><g xmlns="http://www.w3.org/2000/svg"><g><g><g><path d="M38,40c-1.6,0-3.1-0.6-4.2-1.8c-2.3-2.3-2.3-6.1,0-8.5c1.1-1.1,2.6-1.8,4.2-1.8s3.1,0.6,4.2,1.8c2.3,2.3,2.3,6.1,0,8.5      h0c0,0,0,0,0,0C41.1,39.4,39.6,40,38,40z M38,30c-1.1,0-2.1,0.4-2.8,1.2c-1.6,1.6-1.6,4.1,0,5.7c0.8,0.8,1.8,1.2,2.8,1.2      s2.1-0.4,2.8-1.2c0,0,0,0,0,0c1.6-1.6,1.6-4.1,0-5.7C40.1,30.4,39.1,30,38,30z"></path></g></g></g><g><g><g><path d="M34.5,31.4c-0.3,0-0.5-0.1-0.7-0.3L15.7,13.1c-0.4-0.4-0.4-1,0-1.4c0.4-0.4,1-0.4,1.4,0l18.1,18.1c0.4,0.4,0.4,1,0,1.4      C35,31.3,34.7,31.4,34.5,31.4z"></path></g></g></g><g><g><g><path d="M26.6,46.4c-0.3,0-0.5-0.1-0.7-0.3c-0.4-0.4-0.4-1,0-1.4l7.8-7.8c0.4-0.4,1-0.4,1.4,0c0.4,0.4,0.4,1,0,1.4l-7.8,7.8      C27.1,46.3,26.9,46.4,26.6,46.4z"></path></g></g></g><g><g><g><path d="M52,49c-0.3,0-0.5-0.1-0.7-0.3L40.8,38.2c-0.4-0.4-0.4-1,0-1.4c0.4-0.4,1-0.4,1.4,0l10.5,10.5c0.4,0.4,0.4,1,0,1.4      C52.5,48.9,52.3,49,52,49z"></path></g></g></g><g><g><g><path d="M41.5,31.5c-0.3,0-0.5-0.1-0.7-0.3c-0.4-0.4-0.4-1,0-1.4l12.8-12.5c0.4-0.4,1-0.4,1.4,0c0.4,0.4,0.4,1,0,1.4L42.2,31.2      C42,31.4,41.8,31.5,41.5,31.5z"></path></g></g></g><g><g><g><path d="M12.5,15C8.9,15,6,12,6,8.5S8.9,2,12.5,2S19,4.9,19,8.5S16.1,15,12.5,15z M12.5,4C10,4,8,6,8,8.5s2,4.5,4.5,4.5      s4.5-2,4.5-4.5S15,4,12.5,4z"></path></g></g></g><g><g><g><path d="M18.5,66C11.6,66,6,60.4,6,53.5S11.6,41,18.5,41S31,46.6,31,53.5S25.4,66,18.5,66z M18.5,43C12.7,43,8,47.7,8,53.5      C8,59.3,12.7,64,18.5,64S29,59.3,29,53.5C29,47.7,24.3,43,18.5,43z"></path></g></g></g><g><g><g><path d="M57,20c-2.8,0-5-2.2-5-5c0-2.8,2.2-5,5-5s5,2.2,5,5C62,17.7,59.8,20,57,20z M57,12c-1.7,0-3,1.3-3,3c0,1.7,1.3,3,3,3      s3-1.3,3-3C60,13.3,58.7,12,57,12z"></path></g></g></g><g><g><g><path d="M55,56c-2.8,0-5-2.2-5-5c0-2.8,2.2-5,5-5s5,2.2,5,5C60,53.8,57.8,56,55,56z M55,48c-1.7,0-3,1.3-3,3c0,1.7,1.3,3,3,3      s3-1.3,3-3C58,49.3,56.7,48,55,48z"></path></g></g></g></g></g><g id="SvgjsG1549" featurekey="nameFeature-0" transform="matrix(1.8070111984870252,0,0,1.8070111984870252,120.2168480302231,10.195157195650197)" fill="#fff"><path d="M5 11.68 l7.64 11.08 l7.56 -11.08 l4.2 0 l-9.52 13.4 l10.44 14.92 l-4.44 0 l-8.4 -12.56 l-8.44 12.56 l-4.16 0 l10.32 -14.92 l-9.52 -13.4 l4.32 0 z M41.480000000000004 10.96 q3.32 0 5.88 1.18 t4.12 3.26 l-2.92 2.12 q-1.28 -1.72 -3.16 -2.58 t-3.92 -0.86 q-4.52 0 -7.62 3.44 t-3.18 8.32 q0 5.04 3.08 8.38 t7.72 3.38 q5.08 0 8.2 -3.96 l2.52 2.12 q-3.72 4.96 -10.72 4.96 q-6.2 0 -10.26 -4.28 t-4.14 -10.6 q0 -6.32 4.1 -10.56 t10.3 -4.32 z M64.6 11.68 q5.56 0 8.18 1.84 t2.62 5.92 q0 3 -1.78 4.94 t-5.3 2.58 l8.04 13.04 l-4.12 0 l-7.68 -12.72 l-4.32 0 l0 12.72 l-3.36 0 l0 -28.32 l7.72 0 z M64.24 24.16 q3.96 0 5.76 -1.1 t1.8 -3.58 q0 -2.4 -1.62 -3.54 t-5.02 -1.14 l-4.92 0 l0 9.36 l4 0 z M86.32 11.68 l9.6 22.2 l0.08 0 l9.68 -22.2 l4.88 0 l0 28.32 l-3.36 0 l0 -23.76 l-0.08 0 l-10.16 23.76 l-2.04 0 l-10.16 -23.76 l-0.08 0 l0 23.76 l-3.36 0 l0 -28.32 l5 0 z"></path></g></svg>