<svg id="Capa_1" enable-background="new 0 0 512 512" height="512" viewBox="0 0 512 512" width="512" xmlns="http://www.w3.org/2000/svg"><g><path d="m456.833 0h-401.666c-30.419 0-55.167 24.748-55.167 55.167v401.666c0 30.419 24.748 55.167 55.167 55.167h401.667c30.418 0 55.166-24.748 55.166-55.167v-401.666c0-30.419-24.748-55.167-55.167-55.167zm25.167 55.167v185.833h-65.333c-8.284 0-15 6.716-15 15v20.083c0 13.877-11.29 25.167-25.167 25.167s-25.167-11.29-25.167-25.167v-20.083c0-8.284-6.716-15-15-15h-65.333v-50.333h5.083c30.419 0 55.167-24.748 55.167-55.167s-24.748-55.167-55.167-55.167h-5.083v-50.333h185.833c13.877 0 25.167 11.29 25.167 25.167zm-426.833-25.167h185.833v65.333c0 8.284 6.716 15 15 15h20.083c13.877 0 25.167 11.29 25.167 25.167s-11.29 25.167-25.167 25.167h-20.083c-8.284 0-15 6.716-15 15v65.333h-50.333v-5.083c0-30.419-24.748-55.167-55.167-55.167s-55.167 24.748-55.167 55.167v5.083h-50.333v-185.833c0-13.877 11.29-25.167 25.167-25.167zm-25.167 426.833v-185.833h65.333c8.284 0 15-6.716 15-15v-20.083c0-13.877 11.29-25.167 25.167-25.167s25.167 11.29 25.167 25.167v20.083c0 8.284 6.716 15 15 15h65.333v50.333h-5.083c-30.419 0-55.167 24.748-55.167 55.167s24.748 55.167 55.167 55.167h5.083v50.333h-185.833c-13.877 0-25.167-11.29-25.167-25.167zm426.833 25.167h-185.833v-65.333c0-8.284-6.716-15-15-15h-20.083c-13.877 0-25.167-11.29-25.167-25.167s11.29-25.167 25.167-25.167h20.083c8.284 0 15-6.716 15-15v-65.333h50.333v5.083c0 30.419 24.748 55.167 55.167 55.167s55.167-24.748 55.167-55.167v-5.083h50.333v185.833c0 13.877-11.29 25.167-25.167 25.167z"/></g></svg>